#!OML:ASF H:\ManfredETheater\Project 1\Capture day 1\Session 1\subject.ASF
:FULLY-SPECIFIED
:DEGREES
168
root -14.698 15.7274 34.0863 -7.48775 -34.4427 0.875291
lowerback 11.1708 -2.50421 -0.908641
upperback 1.72895 -3.3927 1.37437
thorax -4.30999 -1.66771 2.43978
lowerneck -19.396 -2.48671 -3.70425
upperneck 14.7435 -2.75395 2.09637
head 7.81595 -1.31308 0.961387
rclavicle 4.90253e-014 7.95139e-016
rhumerus -67.4911 -1.20522 -85.7179
rradius 99.0142
rwrist -13.4499
rhand -22.7263 11.7024
rfingers 7.12502
rthumb 3.70742 -18.2451
lclavicle 4.90253e-014 7.95139e-016
lhumerus -46.1084 -16.8919 101.864
lradius 123.403
lwrist 13.4744
lhand -19.1519 -11.2425
lfingers 7.12502
lthumb 7.15855 18.6164
rfemur -36.3567 -1.8156 15.5321
rtibia 28.8996
rfoot -8.19965 -10.3237
rtoes -23.7237
lfemur -17.1986 -1.97895 -22.5877
ltibia 82.5371
lfoot -5.67228 -9.41693
ltoes -3.27297
169
root -14.9909 15.7115 34.41 -7.78463 -34.1667 0.663857
lowerback 11.2203 -2.4703 -0.762876
upperback 1.73471 -3.33107 1.35874
thorax -4.34343 -1.63901 2.3355
lowerneck -19.2481 -2.6515 -3.9061
upperneck 15.0075 -2.95244 2.19294
head 7.88974 -1.41145 1.00235
rclavicle 4.40805e-014 1.19271e-015
rhumerus -67.718 -1.43128 -85.477
rradius 99.3333
rwrist -13.5575
rhand -22.7176 11.4259
rfingers 7.12502
rthumb 3.71586 -18.5215
lclavicle 4.40805e-014 1.19271e-015
lhumerus -46.3287 -17.3455 101.523
lradius 123.499
lwrist 13.2606
lhand -19.0133 -11.3573
lfingers 7.12502
lthumb 7.29236 18.497
rfemur -35.3499 -1.20599 15.5763
rtibia 28.4721
rfoot -7.55719 -10.1868
rtoes -24.6399
lfemur -17.2338 -2.00503 -22.1152
ltibia 84.2478
lfoot -4.13694 -9.53076
ltoes -0.676947
170
root -15.278 15.6837 34.7291 -8.15296 -33.9271 0.501563
lowerback 11.4055 -2.40644 -0.660332
upperback 1.72805 -3.23459 1.34252
thorax -4.46369 -1.59123 2.25731
lowerneck -19.0686 -2.81522 -4.11092
upperneck 15.209 -3.14402 2.25826
head 7.93722 -1.51014 1.03463
rclavicle 1.8897e-014 0
rhumerus -67.8422 -1.58302 -85.2183
rradius 99.5956
rwrist -13.4676
rhand -22.6732 11.2124
rfingers 7.12502
rthumb 3.75869 -18.7342
lclavicle 1.8897e-014 0
lhumerus -46.5418 -17.6548 101.162
lradius 123.365
lwrist 13.0607
lhand -18.8789 -11.4709
lfingers 7.12502
lthumb 7.42208 18.3789
rfemur -34.6226 -0.878256 15.7365
rtibia 28.9944
rfoot -6.44396 -9.72037
rtoes -25.639
lfemur -17.3836 -1.9255 -21.6852
ltibia 86.0049
lfoot -3.46402 -9.33993
ltoes 1.24448
171
root -15.5573 15.6461 35.0422 -8.58671 -33.7316 0.380619
lowerback 11.7174 -2.31612 -0.591877
upperback 1.7312 -3.10682 1.32868
thorax -4.64261 -1.52696 2.2016
lowerneck -18.8691 -2.96973 -4.30563
upperneck 15.3198 -3.3195 2.29047
head 7.95009 -1.60397 1.05667
rclavicle -2.67738e-015 -7.15625e-015
rhumerus -67.8191 -1.64867 -84.9572
rradius 99.7981
rwrist -13.1705
rhand -22.57 11.0741
rfingers 7.12502
rthumb 3.85831 -18.8708
lclavicle -2.67738e-015 -7.15625e-015
lhumerus -46.7114 -17.8043 100.788
lradius 123.006
lwrist 12.7932
lhand -18.7745 -11.5822
lfingers 7.12502
lthumb 7.52282 18.2641
rfemur -34.1786 -0.803824 15.9812
rtibia 30.3656
rfoot -4.75676 -8.87713
rtoes -26.1734
lfemur -17.6535 -1.73959 -21.2952
ltibia 87.76
lfoot -3.46061 -8.90274
ltoes 2.50344
172
root -15.8276 15.601 35.3488 -9.07398 -33.5949 0.264437
lowerback 12.1864 -2.20179 -0.526355
upperback 1.74359 -2.94639 1.33062
thorax -4.8986 -1.4458 2.16511
lowerneck -18.6448 -3.11388 -4.50376
upperneck 15.3369 -3.47654 2.30423
head 7.92686 -1.69106 1.07603
rclavicle -5.29171e-014 -7.95139e-015
rhumerus -67.6508 -1.6214 -84.6965
rradius 99.9444
rwrist -12.6946
rhand -22.4316 11.0038
rfingers 7.12502
rthumb 3.992 -18.9385
lclavicle -5.29171e-014 -7.95139e-015
lhumerus -46.8508 -17.7693 100.431
lradius 122.43
lwrist 12.3859
lhand -18.7258 -11.7052
lfingers 7.12502
lthumb 7.56985 18.1393
rfemur -33.8949 -0.888619 16.287
rtibia 32.2839
rfoot -2.69206 -7.78939
rtoes -26.3483
lfemur -18.0379 -1.45812 -20.9167
ltibia 89.4334
lfoot -3.86419 -8.31944
ltoes 3.27929
173
root -16.088 15.5503 35.6494 -9.60271 -33.5133 0.120105
lowerback 12.8204 -2.07597 -0.433023
upperback 1.76947 -2.76496 1.35624
thorax -5.23201 -1.35418 2.13949
lowerneck -18.4285 -3.23795 -4.67135
upperneck 15.2896 -3.60491 2.27309
head 7.8813 -1.76689 1.07934
rclavicle -8.50919e-014 -1.74931e-014
rhumerus -67.3285 -1.49339 -84.446
rradius 100.022
rwrist -12.0727
rhand -22.256 11.0091
rfingers 7.12502
rthumb 4.16153 -18.93
lclavicle -8.50919e-014 -1.74931e-014
lhumerus -46.9702 -17.5255 100.116
lradius 121.651
lwrist 11.7954
lhand -18.7594 -11.8456
lfingers 7.12502
lthumb 7.53738 18.0001
rfemur -33.7834 -1.06783 16.636
rtibia 34.7836
rfoot -0.605714 -6.53326
rtoes -25.726
lfemur -18.5161 -1.11772 -20.5402
ltibia 91.0118
lfoot -4.52277 -7.70051
ltoes 3.68277
174
root -16.337 15.5289 35.9413 -10.0992 -33.5033 -0.146917
lowerback 13.5533 -1.93136 -0.238307
upperback 1.81587 -2.53962 1.43231
thorax -5.60125 -1.243 2.10268
lowerneck -18.184 -3.36322 -4.85271
upperneck 15.1612 -3.72992 2.23079
head 7.80406 -1.84279 1.08244
rclavicle -7.20408e-014 -7.95139e-015
rhumerus -66.8512 -1.31323 -84.1841
rradius 100.017
rwrist -11.3619
rhand -22.0978 11.0678
rfingers 7.12502
rthumb 4.31434 -18.8683
lclavicle -7.20408e-014 -7.95139e-015
lhumerus -47.0852 -17.1004 99.8983
lradius 120.676
lwrist 11.0011
lhand -18.8902 -11.989
lfingers 7.12502
lthumb 7.41118 17.8612
rfemur -33.6588 -1.25664 17.1008
rtibia 37.6092
rfoot 1.06977 -5.29694
rtoes -24.4468
lfemur -19.01 -0.732344 -20.072
ltibia 92.2968
lfoot -5.21272 -7.19906
ltoes 3.88818
175
root -16.5846 15.4715 36.2307 -10.4922 -33.5403 -0.621788
lowerback 14.3163 -1.79491 0.0888248
upperback 1.8988 -2.29754 1.57827
thorax -5.94969 -1.12745 2.05779
lowerneck -17.9671 -3.47579 -4.99971
upperneck 14.9839 -3.84021 2.16157
head 7.71381 -1.91159 1.07306
rclavicle -1.26943e-014 -5.56597e-015
rhumerus -66.1804 -1.07497 -83.9445
rradius 99.9053
rwrist -10.6467
rhand -21.9736 11.1753
rfingers 7.12502
rthumb 4.43421 -18.7583
lclavicle -1.26943e-014 -5.56597e-015
lhumerus -47.1806 -16.474 99.7631
lradius 119.518
lwrist 10.0289
lhand -19.1262 -12.1133
lfingers 7.12502
lthumb 7.18336 17.7448
rfemur -33.6634 -1.42191 17.7489
rtibia 40.7329
rfoot 2.12146 -4.29851
rtoes -22.6109
lfemur -19.7183 -0.355906 -19.4103
ltibia 93.6058
lfoot -5.98075 -6.94599
ltoes 4.07105
176
root -16.83 15.4139 36.5141 -10.725 -33.5735 -1.29843
lowerback 15.0262 -1.67886 0.511207
upperback 2.00432 -2.05778 1.79513
thorax -6.24308 -1.01652 2.02775
lowerneck -17.7728 -3.57918 -5.11472
upperneck 14.7702 -3.94327 2.08116
head 7.61446 -1.9755 1.05594
rclavicle -1.02821e-013 -4.77083e-015
rhumerus -65.3133 -0.785063 -83.7286
rradius 99.6632
rwrist -10.0185
rhand -21.9323 11.2967
rfingers 7.12502
rthumb 4.47411 -18.6361
lclavicle -1.02821e-013 -4.77083e-015
lhumerus -47.266 -15.6646 99.7106
lradius 118.182
lwrist 8.94684
lhand -19.4682 -12.1906
lfingers 7.12502
lthumb 6.85323 17.6785
rfemur -33.6405 -1.56808 18.5732
rtibia 43.9051
rfoot 2.34698 -3.69552
rtoes -20.5877
lfemur -20.6122 -0.0511337 -18.5741
ltibia 94.7515
lfoot -6.74432 -6.97435
ltoes 4.11286
177
root -17.075 15.3571 36.7922 -10.7818 -33.5828 -2.15336
lowerback 15.6206 -1.58221 1.00004
upperback 2.13055 -1.82446 2.07332
thorax -6.44801 -0.911661 2.01846
lowerneck -17.6149 -3.67927 -5.19262
upperneck 14.5434 -4.04936 1.99788
head 7.51648 -2.03834 1.0315
rclavicle -1.33558e-015 -7.55382e-015
rhumerus -64.2369 -0.448581 -83.5333
rradius 99.2578
rwrist -9.56865
rhand -22.0055 11.4083
rfingers 7.12502
rthumb 4.40347 -18.5259
lclavicle -1.33558e-015 -7.55382e-015
lhumerus -47.3377 -14.6993 99.7251
lradius 116.662
lwrist 7.856
lhand -19.898 -12.1702
lfingers 7.12502
lthumb 6.43829 17.712
rfemur -33.575 -1.69612 19.5582
rtibia 47.0834
rfoot 1.64973 -3.56656
rtoes -18.725
lfemur -21.7052 0.160218 -17.5927
ltibia 95.7434
lfoot -7.57038 -7.26142
ltoes 4.00084
178
root -17.3214 15.303 37.0655 -10.6763 -33.5054 -3.1021
lowerback 16.0493 -1.51314 1.47367
upperback 2.25878 -1.62599 2.38895
thorax -6.55504 -0.824311 2.05699
lowerneck -17.4925 -3.77347 -5.22339
upperneck 14.3348 -4.15754 1.91056
head 7.42965 -2.09956 0.997696
rclavicle 9.13788e-015 2.14687e-014
rhumerus -62.9598 -0.0439866 -83.3554
rradius 98.656
rwrist -9.36602
rhand -22.1999 11.4937
rfingers 7.12502
rthumb 4.21579 -18.4443
lclavicle 9.13788e-015 2.14687e-014
lhumerus -47.3851 -13.6106 99.7634
lradius 114.927
lwrist 6.90043
lhand -20.3669 -12.0384
lfingers 7.12502
lthumb 5.98563 17.8571
rfemur -33.3934 -1.86337 20.6298
rtibia 50.0351
rfoot 0.214459 -3.84037
rtoes -17.2985
lfemur -23.0288 0.237767 -16.5705
ltibia 96.5288
lfoot -8.44218 -7.76089
ltoes 3.78118
